<svg width="80" height="25" viewBox="0 0 80 25" fill="none" xmlns="http://www.w3.org/2000/svg">
<path d="M14.0469 22.3594V24H2.25V22.3594H14.0469ZM2.8125 1.25V24H0.890625V1.25H2.8125ZM16.6169 15.8125V15.2969C16.6169 14.0677 16.794 12.9323 17.1481 11.8906C17.5023 10.849 18.0075 9.94792 18.6637 9.1875C19.3304 8.42708 20.1273 7.83854 21.0544 7.42188C21.9815 6.99479 23.0127 6.78125 24.1481 6.78125C25.294 6.78125 26.3304 6.99479 27.2575 7.42188C28.1846 7.83854 28.9815 8.42708 29.6481 9.1875C30.3148 9.94792 30.8252 10.849 31.1794 11.8906C31.5335 12.9323 31.7106 14.0677 31.7106 15.2969V15.8125C31.7106 17.0417 31.5335 18.1771 31.1794 19.2188C30.8252 20.25 30.3148 21.1458 29.6481 21.9062C28.9919 22.6667 28.2002 23.2604 27.2731 23.6875C26.346 24.1042 25.3148 24.3125 24.1794 24.3125C23.0335 24.3125 21.9971 24.1042 21.07 23.6875C20.1429 23.2604 19.346 22.6667 18.6794 21.9062C18.0127 21.1458 17.5023 20.25 17.1481 19.2188C16.794 18.1771 16.6169 17.0417 16.6169 15.8125ZM18.4762 15.2969V15.8125C18.4762 16.7396 18.6012 17.6198 18.8512 18.4531C19.1012 19.276 19.4658 20.0104 19.945 20.6562C20.4242 21.2917 21.0179 21.7917 21.7262 22.1562C22.4346 22.5208 23.2523 22.7031 24.1794 22.7031C25.096 22.7031 25.9033 22.5208 26.6012 22.1562C27.3096 21.7917 27.9033 21.2917 28.3825 20.6562C28.8617 20.0104 29.221 19.276 29.4606 18.4531C29.7106 17.6198 29.8356 16.7396 29.8356 15.8125V15.2969C29.8356 14.3802 29.7106 13.5104 29.4606 12.6875C29.221 11.8646 28.8565 11.1302 28.3669 10.4844C27.8877 9.83854 27.294 9.32812 26.5856 8.95312C25.8773 8.57812 25.0648 8.39062 24.1481 8.39062C23.2315 8.39062 22.419 8.57812 21.7106 8.95312C21.0127 9.32812 20.419 9.83854 19.9294 10.4844C19.4502 11.1302 19.0856 11.8646 18.8356 12.6875C18.596 13.5104 18.4762 14.3802 18.4762 15.2969ZM22.7144 15.8125V15.2969C22.7144 14.0677 22.8915 12.9323 23.2456 11.8906C23.5998 10.849 24.105 9.94792 24.7612 9.1875C25.4279 8.42708 26.2248 7.83854 27.1519 7.42188C28.079 6.99479 29.1102 6.78125 30.2456 6.78125C31.3915 6.78125 32.4279 6.99479 33.355 7.42188C34.2821 7.83854 35.079 8.42708 35.7456 9.1875C36.4123 9.94792 36.9227 10.849 37.2769 11.8906C37.631 12.9323 37.8081 14.0677 37.8081 15.2969V15.8125C37.8081 17.0417 37.631 18.1771 37.2769 19.2188C36.9227 20.25 36.4123 21.1458 35.7456 21.9062C35.0894 22.6667 34.2977 23.2604 33.3706 23.6875C32.4435 24.1042 31.4123 24.3125 30.2769 24.3125C29.131 24.3125 28.0946 24.1042 27.1675 23.6875C26.2404 23.2604 25.4435 22.6667 24.7769 21.9062C24.1102 21.1458 23.5998 20.25 23.2456 19.2188C22.8915 18.1771 22.7144 17.0417 22.7144 15.8125ZM24.5737 15.2969V15.8125C24.5737 16.7396 24.6987 17.6198 24.9487 18.4531C25.1987 19.276 25.5633 20.0104 26.0425 20.6562C26.5217 21.2917 27.1154 21.7917 27.8237 22.1562C28.5321 22.5208 29.3498 22.7031 30.2769 22.7031C31.1935 22.7031 32.0008 22.5208 32.6987 22.1562C33.4071 21.7917 34.0008 21.2917 34.48 20.6562C34.9592 20.0104 35.3185 19.276 35.5581 18.4531C35.8081 17.6198 35.9331 16.7396 35.9331 15.8125V15.2969C35.9331 14.3802 35.8081 13.5104 35.5581 12.6875C35.3185 11.8646 34.954 11.1302 34.4644 10.4844C33.9852 9.83854 33.3915 9.32812 32.6831 8.95312C31.9748 8.57812 31.1623 8.39062 30.2456 8.39062C29.329 8.39062 28.5165 8.57812 27.8081 8.95312C27.1102 9.32812 26.5165 9.83854 26.0269 10.4844C25.5477 11.1302 25.1831 11.8646 24.9331 12.6875C24.6935 13.5104 24.5737 14.3802 24.5737 15.2969ZM43.8625 0V24H42.0031V0H43.8625ZM54.4719 7.09375L46.5656 14.9375L43.2062 18.1875L42.925 16.3594L45.6281 13.4375L52.1125 7.09375H54.4719ZM52.8469 24L45.7844 15.2188L46.8156 13.6094L55.0969 24H52.8469ZM60.0887 7.09375V24H58.2294V7.09375H60.0887ZM57.9012 2.20312C57.9012 1.84896 58.0106 1.55208 58.2294 1.3125C58.4585 1.0625 58.771 0.9375 59.1669 0.9375C59.5627 0.9375 59.8752 1.0625 60.1044 1.3125C60.344 1.55208 60.4637 1.84896 60.4637 2.20312C60.4637 2.54688 60.344 2.84375 60.1044 3.09375C59.8752 3.33333 59.5627 3.45312 59.1669 3.45312C58.771 3.45312 58.4585 3.33333 58.2294 3.09375C58.0106 2.84375 57.9012 2.54688 57.9012 2.20312ZM64.4869 15.8125V15.2969C64.4869 14.0677 64.664 12.9323 65.0181 11.8906C65.3723 10.849 65.8775 9.94792 66.5338 9.1875C67.2004 8.42708 67.9973 7.83854 68.9244 7.42188C69.8515 6.99479 70.8827 6.78125 72.0181 6.78125C73.164 6.78125 74.2004 6.99479 75.1275 7.42188C76.0546 7.83854 76.8515 8.42708 77.5181 9.1875C78.1848 9.94792 78.6952 10.849 79.0494 11.8906C79.4035 12.9323 79.5806 14.0677 79.5806 15.2969V15.8125C79.5806 17.0417 79.4035 18.1771 79.0494 19.2188C78.6952 20.25 78.1848 21.1458 77.5181 21.9062C76.8619 22.6667 76.0702 23.2604 75.1431 23.6875C74.216 24.1042 73.1848 24.3125 72.0494 24.3125C70.9035 24.3125 69.8671 24.1042 68.94 23.6875C68.0129 23.2604 67.216 22.6667 66.5494 21.9062C65.8827 21.1458 65.3723 20.25 65.0181 19.2188C64.664 18.1771 64.4869 17.0417 64.4869 15.8125ZM66.3463 15.2969V15.8125C66.3463 16.7396 66.4713 17.6198 66.7213 18.4531C66.9713 19.276 67.3358 20.0104 67.815 20.6562C68.2942 21.2917 68.8879 21.7917 69.5963 22.1562C70.3046 22.5208 71.1223 22.7031 72.0494 22.7031C72.966 22.7031 73.7733 22.5208 74.4713 22.1562C75.1796 21.7917 75.7733 21.2917 76.2525 20.6562C76.7317 20.0104 77.091 19.276 77.3306 18.4531C77.5806 17.6198 77.7056 16.7396 77.7056 15.8125V15.2969C77.7056 14.3802 77.5806 13.5104 77.3306 12.6875C77.091 11.8646 76.7265 11.1302 76.2369 10.4844C75.7577 9.83854 75.164 9.32812 74.4556 8.95312C73.7473 8.57812 72.9348 8.39062 72.0181 8.39062C71.1015 8.39062 70.289 8.57812 69.5806 8.95312C68.8827 9.32812 68.289 9.83854 67.7994 10.4844C67.3202 11.1302 66.9556 11.8646 66.7056 12.6875C66.466 13.5104 66.3463 14.3802 66.3463 15.2969Z" fill="#17A600"/>
</svg>
