<svg width="22" height="19" viewBox="0 0 22 19" fill="none" xmlns="http://www.w3.org/2000/svg">
<path d="M0.421875 9.8125V9.29688C0.421875 8.06771 0.598958 6.93229 0.953125 5.89062C1.30729 4.84896 1.8125 3.94792 2.46875 3.1875C3.13542 2.42708 3.93229 1.83854 4.85938 1.42188C5.78646 0.994792 6.81771 0.78125 7.95312 0.78125C9.09896 0.78125 10.1354 0.994792 11.0625 1.42188C11.9896 1.83854 12.7865 2.42708 13.4531 3.1875C14.1198 3.94792 14.6302 4.84896 14.9844 5.89062C15.3385 6.93229 15.5156 8.06771 15.5156 9.29688V9.8125C15.5156 11.0417 15.3385 12.1771 14.9844 13.2188C14.6302 14.25 14.1198 15.1458 13.4531 15.9062C12.7969 16.6667 12.0052 17.2604 11.0781 17.6875C10.151 18.1042 9.11979 18.3125 7.98438 18.3125C6.83854 18.3125 5.80208 18.1042 4.875 17.6875C3.94792 17.2604 3.15104 16.6667 2.48438 15.9062C1.81771 15.1458 1.30729 14.25 0.953125 13.2188C0.598958 12.1771 0.421875 11.0417 0.421875 9.8125ZM2.28125 9.29688V9.8125C2.28125 10.7396 2.40625 11.6198 2.65625 12.4531C2.90625 13.276 3.27083 14.0104 3.75 14.6562C4.22917 15.2917 4.82292 15.7917 5.53125 16.1562C6.23958 16.5208 7.05729 16.7031 7.98438 16.7031C8.90104 16.7031 9.70833 16.5208 10.4062 16.1562C11.1146 15.7917 11.7083 15.2917 12.1875 14.6562C12.6667 14.0104 13.026 13.276 13.2656 12.4531C13.5156 11.6198 13.6406 10.7396 13.6406 9.8125V9.29688C13.6406 8.38021 13.5156 7.51042 13.2656 6.6875C13.026 5.86458 12.6615 5.13021 12.1719 4.48438C11.6927 3.83854 11.099 3.32812 10.3906 2.95312C9.68229 2.57812 8.86979 2.39062 7.95312 2.39062C7.03646 2.39062 6.22396 2.57812 5.51562 2.95312C4.81771 3.32812 4.22396 3.83854 3.73438 4.48438C3.25521 5.13021 2.89062 5.86458 2.64062 6.6875C2.40104 7.51042 2.28125 8.38021 2.28125 9.29688ZM6.51937 9.8125V9.29688C6.51937 8.06771 6.69646 6.93229 7.05062 5.89062C7.40479 4.84896 7.91 3.94792 8.56625 3.1875C9.23292 2.42708 10.0298 1.83854 10.9569 1.42188C11.884 0.994792 12.9152 0.78125 14.0506 0.78125C15.1965 0.78125 16.2329 0.994792 17.16 1.42188C18.0871 1.83854 18.884 2.42708 19.5506 3.1875C20.2173 3.94792 20.7277 4.84896 21.0819 5.89062C21.436 6.93229 21.6131 8.06771 21.6131 9.29688V9.8125C21.6131 11.0417 21.436 12.1771 21.0819 13.2188C20.7277 14.25 20.2173 15.1458 19.5506 15.9062C18.8944 16.6667 18.1027 17.2604 17.1756 17.6875C16.2485 18.1042 15.2173 18.3125 14.0819 18.3125C12.936 18.3125 11.8996 18.1042 10.9725 17.6875C10.0454 17.2604 9.24854 16.6667 8.58187 15.9062C7.91521 15.1458 7.40479 14.25 7.05062 13.2188C6.69646 12.1771 6.51937 11.0417 6.51937 9.8125ZM8.37875 9.29688V9.8125C8.37875 10.7396 8.50375 11.6198 8.75375 12.4531C9.00375 13.276 9.36833 14.0104 9.8475 14.6562C10.3267 15.2917 10.9204 15.7917 11.6287 16.1562C12.3371 16.5208 13.1548 16.7031 14.0819 16.7031C14.9985 16.7031 15.8058 16.5208 16.5037 16.1562C17.2121 15.7917 17.8058 15.2917 18.285 14.6562C18.7642 14.0104 19.1235 13.276 19.3631 12.4531C19.6131 11.6198 19.7381 10.7396 19.7381 9.8125V9.29688C19.7381 8.38021 19.6131 7.51042 19.3631 6.6875C19.1235 5.86458 18.759 5.13021 18.2694 4.48438C17.7902 3.83854 17.1965 3.32812 16.4881 2.95312C15.7798 2.57812 14.9673 2.39062 14.0506 2.39062C13.134 2.39062 12.3215 2.57812 11.6131 2.95312C10.9152 3.32812 10.3215 3.83854 9.83187 4.48438C9.35271 5.13021 8.98812 5.86458 8.73812 6.6875C8.49854 7.51042 8.37875 8.38021 8.37875 9.29688Z" fill="#17A600"/>
</svg>
